<?xml version="1.0" encoding="UTF-8" standalone="no"?>
<svg
   width="57.280464"
   height="57.527554"
   viewBox="0 0 15.155456 15.220833"
   version="1.1"
   id="svg8"
   inkscape:version="1.2.2 (732a01da63, 2022-12-09)"
   sodipodi:docname="dibujo.svg"
   xml:space="preserve"
   inkscape:export-filename="img-portada.jpg"
   inkscape:export-xdpi="248.4097"
   inkscape:export-ydpi="248.4097"
   xmlns:inkscape="http://www.inkscape.org/namespaces/inkscape"
   xmlns:sodipodi="http://sodipodi.sourceforge.net/DTD/sodipodi-0.dtd"
   xmlns="http://www.w3.org/2000/svg"
   xmlns:svg="http://www.w3.org/2000/svg"
   xmlns:rdf="http://www.w3.org/1999/02/22-rdf-syntax-ns#"
   xmlns:cc="http://creativecommons.org/ns#"
   xmlns:dc="http://purl.org/dc/elements/1.1/"><defs
     id="defs2"><style
       id="style342">
    .logo__text__fill{fill:#253858;}
    .header__svg-logo__icon--path--3{fill:#2684ff;}
    .header__svg-logo__icon--path--4{fill:url(#logo-gradient);}
    </style></defs><sodipodi:namedview
     id="base"
     pagecolor="#d3ffca"
     bordercolor="#666666"
     borderopacity="1.0"
     inkscape:pageopacity="0"
     inkscape:pageshadow="2"
     inkscape:zoom="1"
     inkscape:cx="1281"
     inkscape:cy="384.49999"
     inkscape:document-units="px"
     inkscape:current-layer="layer1"
     inkscape:document-rotation="0"
     showgrid="false"
     units="px"
     inkscape:window-width="2400"
     inkscape:window-height="1261"
     inkscape:window-x="-9"
     inkscape:window-y="-9"
     inkscape:window-maximized="1"
     inkscape:snap-bbox="true"
     inkscape:bbox-paths="true"
     inkscape:bbox-nodes="true"
     inkscape:snap-bbox-edge-midpoints="true"
     inkscape:snap-bbox-midpoints="true"
     inkscape:snap-page="true"
     showguides="false"
     inkscape:guide-bbox="true"
     inkscape:pagecheckerboard="0"
     inkscape:snap-global="true"
     inkscape:showpageshadow="2"
     inkscape:deskcolor="#d3ffca"><sodipodi:guide
       position="-195.19215,25.19717"
       orientation="1,0"
       id="guide7025"
       inkscape:locked="false" /><sodipodi:guide
       position="-262.69368,41.351879"
       orientation="0,-1"
       id="guide7027"
       inkscape:locked="false" /><sodipodi:guide
       position="-265.40434,-17.106225"
       orientation="0,-1"
       id="guide7029"
       inkscape:locked="false" /><sodipodi:guide
       position="-257.72414,51.335448"
       orientation="0,-1"
       id="guide7031"
       inkscape:locked="false" /><sodipodi:guide
       position="-241.66022,59.411172"
       orientation="1,0"
       id="guide7033"
       inkscape:locked="false" /><sodipodi:guide
       position="-226.52387,-27.089792"
       orientation="0,-1"
       id="guide7035"
       inkscape:locked="false" /><sodipodi:guide
       position="-102.23755,-35.16551"
       orientation="1,0"
       id="guide7037"
       inkscape:locked="false" /><sodipodi:guide
       position="-252.62878,57.505282"
       orientation="0,-1"
       id="guide7039"
       inkscape:locked="false" /><sodipodi:guide
       position="-252.62878,62.496092"
       orientation="1,0"
       id="guide7041"
       inkscape:locked="false" /><sodipodi:guide
       position="-91.268978,-33.259615"
       orientation="0,-1"
       id="guide7043"
       inkscape:locked="false" /><sodipodi:guide
       position="-91.470198,-37.848185"
       orientation="1,0"
       id="guide7045"
       inkscape:locked="false" /><sodipodi:guide
       position="-270.38997,61.318232"
       orientation="0,-1"
       id="guide7047"
       inkscape:locked="false" /><sodipodi:guide
       position="-259.42344,61.318232"
       orientation="1,0"
       id="guide7049"
       inkscape:locked="false" /><sodipodi:guide
       position="-84.490398,-37.072565"
       orientation="0,-1"
       id="guide7051"
       inkscape:locked="false" /><sodipodi:guide
       position="-84.490398,-37.072565"
       orientation="1,0"
       id="guide7053"
       inkscape:locked="false" /><sodipodi:guide
       position="-73.523868,31.257879"
       orientation="0,-1"
       id="guide7169"
       inkscape:locked="false" /><sodipodi:guide
       position="-18.110227,-239.08647"
       orientation="0,-1"
       id="guide9741"
       inkscape:locked="false" /><sodipodi:guide
       position="-23.594537,-225.96492"
       orientation="0,-1"
       id="guide9775"
       inkscape:locked="false" /><sodipodi:guide
       position="-14.721977,-215.35083"
       orientation="1,0"
       id="guide9777"
       inkscape:locked="false" /><sodipodi:guide
       position="146.63779,-418.99692"
       orientation="1,0"
       id="guide9793"
       inkscape:locked="false" /><sodipodi:guide
       position="153.41651,-427.10617"
       orientation="1,0"
       id="guide9821"
       inkscape:locked="false" /><sodipodi:guide
       position="-21.500667,-427.10616"
       orientation="1,0"
       id="guide9847"
       inkscape:locked="false" /><sodipodi:guide
       position="-26.983877,-217.85567"
       orientation="0,-1"
       id="guide9873"
       inkscape:locked="false" /><sodipodi:guide
       position="-3.755567,-250.33792"
       orientation="1,0"
       id="guide9904"
       inkscape:locked="false" /><sodipodi:guide
       position="0.43269305,-239.08647"
       orientation="1,0"
       id="guide9914"
       inkscape:locked="false" /><sodipodi:guide
       position="-17.460487,-209.43602"
       orientation="1,0"
       id="guide11258"
       inkscape:locked="false" /><sodipodi:guide
       position="149.41902,-207.24191"
       orientation="1,0"
       id="guide11260"
       inkscape:locked="false" /><sodipodi:guide
       position="133.73765,-204.73674"
       orientation="0,-1"
       id="guide40633"
       inkscape:locked="false" /><sodipodi:guide
       position="-32.467087,-289.10412"
       orientation="1,0"
       id="guide40637"
       inkscape:locked="false" /><sodipodi:guide
       position="164.38292,-306.31628"
       orientation="1,0"
       id="guide40639"
       inkscape:locked="false" /><sodipodi:guide
       position="13.987963,-236.57806"
       orientation="1,0"
       id="guide41378"
       inkscape:locked="false" /><sodipodi:guide
       position="18.175953,-606.80871"
       orientation="1,0"
       id="guide9534"
       inkscape:locked="false" /><sodipodi:guide
       position="22.363943,-618.87128"
       orientation="1,0"
       id="guide9536"
       inkscape:locked="false" /></sodipodi:namedview><metadata
     id="metadata5"><rdf:RDF><cc:Work
         rdf:about=""><dc:format>image/svg+xml</dc:format><dc:type
           rdf:resource="http://purl.org/dc/dcmitype/StillImage" /></cc:Work></rdf:RDF></metadata><g
     inkscape:label="Capa 1"
     inkscape:groupmode="layer"
     id="layer1"
     transform="translate(-270.37388,-52.266066)"><g
       id="g59360"
       transform="matrix(0.25258892,0,0,0.25366616,269.86877,51.759596)"
       style="stroke-width:1.04526"
       inkscape:export-filename="icon-rol.svg"
       inkscape:export-xdpi="248.4097"
       inkscape:export-ydpi="248.4097"><path
         d="m 36.1052,18.0681 a 8.56,8.56 0 1 0 -8.21,0 9.2306,9.2306 0 0 0 -5.135,7.49 l -0.3955,4.3506 A 1,1 0 0 0 23.36,31 h 17.28 a 1,1 0 0 0 0.9961,-1.0908 L 41.24,25.5586 a 9.2306,9.2306 0 0 0 -5.1348,-7.4905 z"
         style="fill:#78b9eb;fill-opacity:1;stroke-width:1.04526"
         id="path59346" /><path
         d="m 15.7454,49.0681 a 8.56,8.56 0 1 0 -8.2109,0 9.2309,9.2309 0 0 0 -5.1351,7.49 L 2.0039,60.9087 A 1,1 0 0 0 3,62 h 17.28 a 1,1 0 0 0 0.9961,-1.0908 l -0.3955,-4.3506 a 9.2307,9.2307 0 0 0 -5.1352,-7.4905 z"
         style="fill:#d3a621;fill-opacity:1;stroke-width:1.04526"
         id="path59348" /><path
         d="m 61.6006,56.5586 a 9.2309,9.2309 0 0 0 -5.1351,-7.49 8.56,8.56 0 1 0 -8.2109,0 9.2307,9.2307 0 0 0 -5.1355,7.49 l -0.3955,4.3506 A 1,1 0 0 0 43.72,62 H 61 a 1,1 0 0 0 0.9961,-1.0908 z"
         style="fill:#9ebba0;fill-opacity:1;stroke-width:1.04526"
         id="path59350" /><path
         d="m 23.36,31 h 17.28 a 1,1 0 0 0 0.9961,-1.0908 L 41.24,25.5586 a 9.2306,9.2306 0 0 0 -5.135,-7.49 8.56,8.56 0 1 0 -8.21,0 9.2306,9.2306 0 0 0 -5.135,7.49 l -0.3955,4.3506 A 1,1 0 0 0 23.36,31 Z M 25.44,10.56 A 6.56,6.56 0 1 1 32,17.12 6.5667,6.5667 0 0 1 25.44,10.56 Z m -0.688,15.18 a 7.2778,7.2778 0 0 1 14.496,0 L 39.5449,29 h -15.09 z"
         style="fill:#242c88;fill-opacity:1;stroke-width:1.04526"
         id="path59352" /><path
         d="m 15.7454,49.0681 a 8.56,8.56 0 1 0 -8.2109,0 9.2309,9.2309 0 0 0 -5.1351,7.49 L 2.0039,60.9087 A 1,1 0 0 0 3,62 h 17.28 a 1,1 0 0 0 0.9961,-1.0908 L 20.8806,56.5586 A 9.2307,9.2307 0 0 0 15.7454,49.0681 Z M 5.08,41.56 a 6.56,6.56 0 1 1 6.56,6.56 6.5667,6.5667 0 0 1 -6.56,-6.56 z M 4.0947,60 4.3916,56.74 a 7.2784,7.2784 0 0 1 14.4971,0 L 19.1855,60 Z"
         style="fill:#242c88;fill-opacity:1;stroke-width:1.04526"
         id="path59354" /><path
         d="m 61.6006,56.5586 a 9.2309,9.2309 0 0 0 -5.1351,-7.49 8.56,8.56 0 1 0 -8.2109,0 9.2307,9.2307 0 0 0 -5.1355,7.49 l -0.3955,4.3506 A 1,1 0 0 0 43.72,62 H 61 a 1,1 0 0 0 0.9961,-1.0908 z M 45.8,41.56 a 6.56,6.56 0 1 1 6.56,6.56 6.5676,6.5676 0 0 1 -6.56,-6.56 z M 44.8145,60 45.1113,56.74 a 7.2784,7.2784 0 0 1 14.4971,0 L 59.9053,60 Z"
         style="fill:#242c88;fill-opacity:1;stroke-width:1.04526"
         id="path59356" /><path
         d="M 33,43.511 V 35 a 1,1 0 0 0 -2,0 v 8.511 l -8.6143,6.7 a 1.0000216,1.0000216 0 1 0 1.2286,1.5782 L 32,45.2666 l 8.3857,6.5225 a 1.0000216,1.0000216 0 1 0 1.2286,-1.5782 z"
         style="fill:#242c88;fill-opacity:1;stroke-width:1.04526"
         id="path59358" /></g></g><style
     type="text/css"
     id="style2287">
	.st0{fill:#252F3E;}
	.st1{fill-rule:evenodd;clip-rule:evenodd;fill:#FF9900;}
</style></svg>
